<svg id="Capa_2" xmlns="http://www.w3.org/2000/svg" viewBox="0 0 494.13 119.35"><defs><style>.cls-1{fill:#020f33}</style></defs><g id="LOGOS"><g id="LOGOTIPO"><g id="shaper"><path class="cls-1" d="M125.88 82.48h22.22c8.3 0 10.98-4.21 10.98-9.96 0-3.96-1.15-6.89-4.85-9.96l-2.68-2.17c-2.43-2.04-3.83-4.47-3.83-6.89 0-1.28.38-2.43 1.28-3.58a6.935 6.935 0 0 1 5.49-2.68c1.66 0 3.19.51 4.6 1.66l2.68 2.17c6.13 4.98 10.98 10.73 10.98 21.71 0 15.19-9.07 22.98-24.77 22.98h-22.09c-3.57 0-6-2.68-6-6.64s2.43-6.64 6-6.64zm38.94-69.2h-19.66c-8.3 0-10.98 4.21-10.98 9.96 0 3.96 1.15 6.89 4.85 9.96l2.68 2.17c2.43 2.04 3.83 4.47 3.83 6.89 0 1.28-.38 2.43-1.28 3.57a6.935 6.935 0 0 1-5.49 2.68c-1.66 0-3.19-.51-4.6-1.66l-2.68-2.17c-6.13-4.98-10.98-10.73-10.98-21.71 0-15.19 9.07-22.98 24.77-22.98h19.53c3.57 0 6 2.68 6 6.64s-2.43 6.64-6 6.64zM212.45 26.83h-13.04V6.39c0-3.96-2.81-6.39-6.65-6.39s-6.65 2.43-6.65 6.39v27.09c0 3.96 2.69 6.65 6.65 6.65h17.77c12.9 0 14.06 3.58 14.06 13.92v35.4c0 3.7 2.94 6.39 6.64 6.39s6.65-2.69 6.65-6.39V52.13c0-18.91-7.41-25.3-25.42-25.3z"/><path class="cls-1" d="M199.41 52.91v36.54c0 3.7-2.94 6.39-6.65 6.39s-6.65-2.69-6.65-6.39V52.91c0-3.71 2.95-6.39 6.65-6.39s6.65 2.68 6.65 6.39zM274.07 83.66h4.09c3.7 0 6.38 2.55 6.38 6.26 0 3.45-2.68 6-6.38 6h-5.11c-12.9 0-21.83-7.92-21.83-20.56s7.79-20.56 21.71-20.56h5.24c3.7 0 6.38 2.55 6.38 6.26s-2.68 6-6.38 6h-4.09c-6 0-9.32 2.17-9.32 8.3s4.34 8.3 9.32 8.3zm-11.62-56.69h16.6c16.09 0 25.15 6.77 25.15 24v38.82c0 3.7-2.17 6.13-6.64 6.13s-6.64-2.43-6.64-6.13v-36.9c0-9.58-4.85-12.9-13.79-12.9h-14.68c-3.7 0-6.38-2.81-6.38-6.51s2.68-6.51 6.38-6.51z"/><rect class="cls-1" x="323.37" y="26.98" width="14.03" height="92.36" rx="7.01" ry="7.01"/><path class="cls-1" d="m349.2 27.01-1-.08c-3.67-.32-6.54 2.23-6.87 6-.33 3.79 2.07 6.79 5.73 7.11l1.01.08c9.1.8 11.59 6.36 11.46 12.18h-.09c0 .05.01.09.01.14.02.21.03.42.05.62-.01.21-.02.42-.04.62v.12h.09c.22 5.83-2.18 11.43-11.27 12.37l-1.01.1c-3.65.38-6 3.41-5.62 7.2.39 3.77 3.3 6.27 6.96 5.89l1-.1c16.02-1.65 23-13.09 22.31-26.31.48-13.23-6.68-24.55-22.72-25.95z"/><g><path class="cls-1" d="M430.23 82.96h-17.56c-6.27 0-12.41-2.26-12.41-10.66v-1c0-3.64-2.76-6.27-6.53-6.27s-6.53 2.63-6.53 6.27v1c0 15.8 11.54 23.46 25.47 23.46h17.56c3.64 0 6.27-2.76 6.27-6.4s-2.63-6.39-6.27-6.39zM438.13 51.48v9.53c0 4.02-1.5 5.65-5.39 5.65h-20.95c-3.63 0-6.27-2-6.27-6.02s2.64-6.02 6.27-6.02h13.3v-3.14c0-9.78-6.27-12.42-12.42-12.42s-12.41 2.64-12.41 12.42v1c0 3.64-2.76 6.27-6.53 6.27s-6.53-2.63-6.53-6.27v-1c0-16.68 11.54-24.72 25.47-24.72s25.47 8.03 25.47 24.72z"/></g><g><rect class="cls-1" x="456.37" y="64.09" width="13.29" height="31.57" rx="6.65" ry="6.65"/><path class="cls-1" d="M487.43 26.39h-9.27c-14.15 0-21.74 6.69-21.74 21.62v3.48c0 3.74 2.96 6.43 6.69 6.43s6.68-2.7 6.68-6.43v-1.55c0-6.3 2.19-10.16 10.3-10.16h7.34c4 0 6.69-2.71 6.69-6.69s-2.7-6.69-6.69-6.69z"/></g></g><g id="ISO"><path class="cls-1" d="M74.24 72.82c0 3.7-.54 6.95-1.58 9.75-.48 1.29-1.51 3.71-3.66 6.12-4.83 5.4-11.62 6.36-15.16 6.86-2.51.36-4.62.36-6.06.29-8.68 0-17.38-.01-26.06-.02-1.47-.01-9.1-.23-15.25-6.42C.32 83.23.14 75.63.14 74.15V23.78c0-.85-.02-1.71-.09-2.56C-.14 18.66-.1 11.25 5.8 5.6 11.04.59 17.45.29 20.06.4c1.24.05 3.28.08 4.53.08h3c.93 0 1.3 1.22.52 1.72-1.36.88-2.87 2.11-4.26 3.83-2.17 2.69-3.1 5.42-3.51 7.11a.91.91 0 0 1-.64.66c-.97.27-2.55.88-3.92 2.31-.28.29-1.43 1.53-2.06 3.53-.3.97-.39 1.82-.41 2.42v52.09c0 4.65 3.77 8.43 8.43 8.43h4.78c7.74-.03 15.49-.07 23.22-.1 8.24 0 10.92-4.19 10.92-9.91 0-3.93-1.14-6.86-4.83-9.91l-2.66-2.16c-1.05-.88-1.9-1.83-2.54-2.83 0-.02-.02-.04-.03-.05-.17-.27-.33-.56-.47-.84-.04-.08-.07-.16-.11-.24-.33-.78-.51-1.65-.51-2.55a6.58 6.58 0 0 1 4.58-6.27l.31-.09c.08-.02.17-.04.26-.06.09-.02.19-.04.29-.05.12-.02.25-.04.38-.06l.37-.03c.11 0 .22-.01.33-.01h.06c1.65 0 3.18.51 4.58 1.64l2.66 2.17c6.09 4.94 10.92 10.66 10.92 21.57z"/><path class="cls-1" d="M22.28 23.44c0-3.7.54-6.95 1.58-9.75.48-1.29 1.51-3.71 3.66-6.12 4.83-5.4 11.62-6.36 15.16-6.86C45.19.35 47.3.35 48.74.42c8.68 0 17.38.01 26.06.02 1.47.01 9.1.23 15.25 6.42 6.14 6.18 6.32 13.78 6.33 15.26v50.37c0 .85.02 1.71.09 2.56.19 2.56.15 9.97-5.75 15.62-5.24 5.02-11.65 5.32-14.26 5.21-1.24-.05-3.28-.08-4.53-.08h-3c-.93 0-1.3-1.22-.52-1.72 1.36-.88 2.87-2.11 4.26-3.83 2.17-2.69 3.1-5.42 3.51-7.11a.91.91 0 0 1 .64-.66c.97-.27 2.55-.88 3.92-2.31.28-.29 1.43-1.53 2.06-3.53.3-.97.39-1.82.41-2.42v-52.1c0-4.65-3.77-8.43-8.43-8.43H70c-7.74.03-15.49.07-23.22.1-8.24 0-10.92 4.19-10.92 9.91 0 3.93 1.14 6.86 4.83 9.91l2.66 2.16c1.05.88 1.9 1.83 2.54 2.83 0 .02.02.04.03.05.17.27.33.56.47.84.04.08.07.16.11.24.33.78.51 1.65.51 2.55a6.58 6.58 0 0 1-4.58 6.27l-.31.09c-.08.02-.17.04-.26.06a2.5 2.5 0 0 1-.29.05c-.12.02-.25.04-.38.06l-.37.03c-.11 0-.22.01-.33.01h-.06c-1.65 0-3.18-.51-4.58-1.64l-2.66-2.17C27.1 40.1 22.27 34.38 22.27 23.47z"/></g></g></g></svg>