<?xml version="1.0" encoding="UTF-8"?><svg id="Capa_2" xmlns="http://www.w3.org/2000/svg" viewBox="0 0 200.23 182.4"><defs><style>.cls-1{fill:#020f33;}</style></defs><g id="LOGOS"><g id="IMAGOTIPO"><g id="shaper"><path class="cls-1" d="M3.16,162.85H14.85c4.37,0,5.78-2.22,5.78-5.24,0-2.08-.6-3.63-2.55-5.24l-1.41-1.14c-1.28-1.08-2.02-2.35-2.02-3.63,0-.67,.2-1.28,.67-1.88,.74-.94,1.81-1.41,2.89-1.41,.87,0,1.68,.27,2.42,.87l1.41,1.14c3.23,2.62,5.78,5.64,5.78,11.42,0,8-4.77,12.1-13.04,12.1H3.16c-1.88,0-3.16-1.41-3.16-3.49s1.28-3.49,3.16-3.49Zm20.5-36.42H13.31c-4.37,0-5.78,2.22-5.78,5.24,0,2.08,.6,3.63,2.55,5.24l1.41,1.14c1.28,1.08,2.02,2.35,2.02,3.63,0,.67-.2,1.28-.67,1.88-.74,.94-1.81,1.41-2.89,1.41-.87,0-1.68-.27-2.42-.87l-1.41-1.14c-3.23-2.62-5.78-5.64-5.78-11.42,0-8,4.77-12.1,13.04-12.1h10.28c1.88,0,3.16,1.41,3.16,3.49s-1.28,3.49-3.16,3.49Z"/><g><path class="cls-1" d="M50.62,133.25h-6.92v-10.86c0-2.1-1.49-3.39-3.53-3.39s-3.53,1.29-3.53,3.39v14.39c0,2.1,1.43,3.53,3.53,3.53h9.44c6.85,0,7.47,1.9,7.47,7.4v18.8c0,1.97,1.56,3.39,3.53,3.39s3.53-1.43,3.53-3.39v-19.82c0-10.04-3.94-13.44-13.5-13.44Z"/><path class="cls-1" d="M43.7,147.1v19.41c0,1.97-1.56,3.39-3.53,3.39s-3.53-1.43-3.53-3.39v-19.41c0-1.97,1.57-3.39,3.53-3.39s3.53,1.42,3.53,3.39Z"/></g><path class="cls-1" d="M83.36,163.44h2.17c1.97,0,3.39,1.36,3.39,3.32,0,1.83-1.42,3.19-3.39,3.19h-2.71c-6.85,0-11.6-4.21-11.6-10.92s4.14-10.92,11.53-10.92h2.78c1.97,0,3.39,1.36,3.39,3.32s-1.42,3.19-3.39,3.19h-2.17c-3.19,0-4.95,1.15-4.95,4.41s2.31,4.41,4.95,4.41Zm-6.17-30.11h8.82c8.55,0,13.36,3.59,13.36,12.75v20.62c0,1.97-1.15,3.26-3.53,3.26s-3.53-1.29-3.53-3.26v-19.6c0-5.09-2.58-6.85-7.33-6.85h-7.8c-1.97,0-3.39-1.49-3.39-3.46s1.42-3.46,3.39-3.46Z"/><g><rect class="cls-1" x="109.55" y="133.33" width="7.45" height="49.06" rx="3.73" ry="3.73"/><path class="cls-1" d="M123.27,133.35l-.53-.04c-1.95-.17-3.48,1.18-3.65,3.19-.17,2.01,1.1,3.61,3.04,3.78l.54,.04c4.84,.42,6.16,3.38,6.09,6.47h-.05s0,.05,0,.07c.01,.11,.02,.22,.03,.33,0,.11-.01,.22-.02,.33,0,.02,0,.04,0,.07h.05c.11,3.1-1.16,6.07-5.99,6.57l-.54,.05c-1.94,.2-3.19,1.81-2.98,3.82,.21,2,1.76,3.33,3.7,3.13l.53-.05c8.51-.88,12.22-6.95,11.85-13.97,.25-7.03-3.55-13.04-12.07-13.79Z"/></g><g><path class="cls-1" d="M166.31,163.1h-9.33c-3.33,0-6.59-1.2-6.59-5.66v-.53c0-1.93-1.47-3.33-3.47-3.33s-3.47,1.4-3.47,3.33v.53c0,8.39,6.13,12.46,13.53,12.46h9.33c1.93,0,3.33-1.47,3.33-3.4s-1.4-3.4-3.33-3.4Z"/><path class="cls-1" d="M170.51,146.37v5.06c0,2.13-.8,3-2.86,3h-11.13c-1.93,0-3.33-1.06-3.33-3.2s1.4-3.2,3.33-3.2h7.07v-1.67c0-5.2-3.33-6.6-6.6-6.6s-6.59,1.4-6.59,6.6v.53c0,1.93-1.47,3.33-3.47,3.33s-3.47-1.4-3.47-3.33v-.53c0-8.86,6.13-13.13,13.53-13.13s13.53,4.27,13.53,13.13Z"/></g><g><rect class="cls-1" x="180.22" y="153.14" width="7.04" height="16.73" rx="3.52" ry="3.52"/><path class="cls-1" d="M196.68,133.16h-4.91c-7.5,0-11.52,3.55-11.52,11.46v1.84c0,1.98,1.57,3.41,3.55,3.41s3.54-1.43,3.54-3.41v-.82c0-3.34,1.16-5.38,5.46-5.38h3.89c2.12,0,3.55-1.44,3.55-3.55s-1.43-3.55-3.55-3.55Z"/></g></g><g id="ISO"><path class="cls-1" d="M133.45,76.81c0,3.92-.57,7.37-1.68,10.34-.51,1.37-1.6,3.93-3.88,6.49-5.12,5.72-12.32,6.74-16.08,7.28-2.66,.38-4.9,.38-6.42,.31-9.21,0-18.42-.01-27.63-.02-1.56-.01-9.65-.24-16.17-6.81-6.51-6.55-6.7-14.61-6.71-16.18V24.81c0-.9-.03-1.81-.09-2.71-.2-2.71-.16-10.58,6.1-16.56C66.45,.22,73.24-.1,76,.02c1.32,.06,3.48,.08,4.8,.08h3.18c.99,0,1.38,1.29,.55,1.82-1.44,.93-3.05,2.24-4.51,4.06-2.3,2.85-3.29,5.74-3.72,7.54-.09,.34-.34,.61-.68,.7-1.03,.28-2.7,.93-4.16,2.45-.3,.31-1.52,1.62-2.19,3.75-.32,1.03-.41,1.93-.43,2.57v55.23c0,4.94,4,8.94,8.94,8.94h5.07c8.21-.04,16.42-.07,24.62-.11,8.74,0,11.58-4.44,11.58-10.5,0-4.17-1.21-7.27-5.12-10.5l-2.83-2.29c-1.11-.93-2.02-1.94-2.7-3,0-.02-.02-.04-.03-.05-.18-.29-.35-.59-.5-.89-.04-.08-.08-.17-.11-.25-.35-.83-.54-1.75-.54-2.71,0-3.12,2.04-5.76,4.86-6.64,.11-.04,.22-.07,.33-.09,.09-.02,.18-.05,.27-.07,.1-.02,.2-.04,.31-.05,.13-.02,.27-.04,.4-.06,.13-.01,.26-.02,.39-.03,.12,0,.24-.01,.35-.01h.06c1.75,0,3.37,.54,4.85,1.74l2.83,2.3c6.45,5.24,11.58,11.3,11.58,22.87Z"/><path class="cls-1" d="M78.36,24.45c0-3.92,.57-7.37,1.68-10.34,.51-1.37,1.6-3.93,3.88-6.49C89.04,1.9,96.24,.88,99.99,.34c2.66-.38,4.9-.38,6.42-.31,9.21,0,18.42,.01,27.63,.02,1.56,.01,9.65,.24,16.17,6.81,6.51,6.55,6.7,14.61,6.71,16.18v53.41c0,.9,.03,1.81,.09,2.71,.2,2.71,.16,10.58-6.1,16.56-5.56,5.32-12.35,5.64-15.12,5.52-1.32-.06-3.48-.08-4.8-.08h-3.18c-.99,0-1.38-1.29-.55-1.82,1.44-.93,3.05-2.24,4.51-4.06,2.3-2.85,3.29-5.74,3.72-7.54,.09-.34,.34-.61,.68-.7,1.03-.28,2.7-.93,4.16-2.45,.3-.31,1.52-1.62,2.19-3.75,.32-1.03,.41-1.93,.43-2.57V23.05c0-4.94-4-8.94-8.94-8.94h-5.07c-8.21,.04-16.42,.07-24.62,.11-8.74,0-11.58,4.44-11.58,10.5,0,4.17,1.21,7.27,5.12,10.5l2.83,2.29c1.11,.93,2.02,1.94,2.7,3,0,.02,.02,.04,.03,.05,.18,.29,.35,.59,.5,.89,.04,.08,.08,.17,.11,.25,.35,.83,.54,1.75,.54,2.71,0,3.12-2.04,5.76-4.86,6.64-.11,.04-.22,.07-.33,.09-.09,.02-.18,.05-.27,.07-.1,.02-.2,.04-.31,.05-.13,.02-.27,.04-.4,.06-.13,.01-.26,.02-.39,.03-.12,0-.24,.01-.35,.01h-.06c-1.75,0-3.37-.54-4.85-1.74l-2.83-2.3c-6.45-5.24-11.58-11.3-11.58-22.87Z"/></g></g></g></svg>