<?xml version="1.0" encoding="UTF-8" standalone="no"?>
<!-- Created with Inkscape (http://www.inkscape.org/) -->

<svg
   version="1.1"
   id="svg2"
   width="84.483154"
   height="83.598877"
   viewBox="0 0 84.483154 83.598877"
   sodipodi:docname="SHAPER [BB].ai"
   xmlns:inkscape="http://www.inkscape.org/namespaces/inkscape"
   xmlns:sodipodi="http://sodipodi.sourceforge.net/DTD/sodipodi-0.dtd"
   xmlns="http://www.w3.org/2000/svg"
   xmlns:svg="http://www.w3.org/2000/svg">
  <defs
     id="defs6" />
  <sodipodi:namedview
     id="namedview4"
     pagecolor="#ffffff"
     bordercolor="#000000"
     borderopacity="0.25"
     inkscape:showpageshadow="2"
     inkscape:pageopacity="0.0"
     inkscape:pagecheckerboard="0"
     inkscape:deskcolor="#d1d1d1"
     showgrid="false" />
  <g
     id="g8"
     inkscape:groupmode="layer"
     inkscape:label="SHAPER [BB]"
     transform="matrix(1.3333333,0,0,-1.3333333,-1142.1539,-198.48474)">
    <path
       d="m 905.35281,-196.42195 c 0,-2.43 -0.355,-4.564 -1.039,-6.404 -0.315,-0.849 -0.988,-2.434 -2.401,-4.019 -3.173,-3.542 -7.63,-4.175 -9.954,-4.505 -1.647,-0.234 -3.034,-0.234 -3.978,-0.19 -5.702,0.004 -11.407,0.007 -17.109,0.011 -0.966,0.007 -5.972,0.15 -10.012,4.216 -4.033,4.059 -4.15,9.047 -4.154,10.02 v 33.068 c 0,0.561 -0.016,1.12 -0.057,1.679 -0.124,1.68 -0.101,6.548 3.775,10.251 3.442,3.294 7.646,3.492 9.359,3.42 0.817,-0.034 2.154,-0.049 2.972,-0.049 h 1.971 c 0.61,0 0.854,-0.798 0.342,-1.129 -0.893,-0.579 -1.886,-1.388 -2.794,-2.512 -1.427,-1.768 -2.035,-3.558 -2.306,-4.67 -0.055,-0.212 -0.208,-0.377 -0.421,-0.436 -0.636,-0.175 -1.672,-0.578 -2.576,-1.518 -0.186,-0.191 -0.94,-1.003 -1.354,-2.32 -0.198,-0.637 -0.256,-1.193 -0.267,-1.589 v -34.195 c 0,-3.056 2.477,-5.533 5.533,-5.533 h 3.137 c 5.083,0.022 10.166,0.044 15.245,0.066 5.413,0 7.17,2.752 7.17,6.503 0,2.58 -0.751,4.501 -3.173,6.503 l -1.75,1.416 c -0.688,0.575 -1.248,1.204 -1.668,1.855 -0.004,0.015 -0.011,0.026 -0.019,0.033 -0.113,0.18 -0.216,0.366 -0.307,0.549 -0.026,0.052 -0.048,0.103 -0.07,0.158 -0.215,0.512 -0.336,1.083 -0.336,1.676 0,1.932 1.266,3.568 3.008,4.113 0.066,0.022 0.135,0.04 0.205,0.059 0.055,0.014 0.11,0.029 0.168,0.04 0.062,0.015 0.125,0.026 0.19,0.033 0.081,0.015 0.165,0.026 0.249,0.037 0.081,0.007 0.161,0.014 0.242,0.018 0.073,0.004 0.146,0.007 0.22,0.007 h 0.036 c 1.083,0 2.086,-0.333 3.005,-1.076 l 1.749,-1.423 c 3.996,-3.246 7.169,-6.998 7.169,-14.163"
       style="fill:#011031;fill-opacity:1;fill-rule:nonzero;stroke:none"
       id="path474-3" />
    <path
       d="m 871.24041,-164.00415 c 0,2.43 0.355,4.564 1.039,6.404 0.315,0.849 0.988,2.434 2.401,4.019 3.173,3.542 7.63,4.175 9.954,4.504 1.647,0.235 3.034,0.235 3.978,0.191 5.702,-0.004 11.407,-0.008 17.109,-0.011 0.966,-0.007 5.972,-0.15 10.013,-4.216 4.032,-4.059 4.149,-9.047 4.153,-10.02 v -33.068 c 0,-0.561 0.016,-1.12 0.057,-1.679 0.124,-1.68 0.101,-6.548 -3.775,-10.251 -3.442,-3.294 -7.645,-3.492 -9.359,-3.421 -0.817,0.035 -2.154,0.05 -2.972,0.05 h -1.971 c -0.61,0 -0.854,0.798 -0.342,1.129 0.893,0.579 1.886,1.388 2.794,2.512 1.427,1.768 2.035,3.558 2.306,4.67 0.055,0.212 0.208,0.377 0.421,0.436 0.636,0.175 1.672,0.578 2.576,1.518 0.187,0.191 0.94,1.003 1.354,2.32 0.198,0.637 0.256,1.193 0.267,1.589 v 34.195 c 0,3.056 -2.477,5.533 -5.533,5.533 h -3.136 c -5.084,-0.022 -10.167,-0.044 -15.246,-0.066 -5.413,0 -7.17,-2.752 -7.17,-6.503 0,-2.58 0.751,-4.501 3.173,-6.503 l 1.75,-1.416 c 0.688,-0.575 1.248,-1.204 1.668,-1.855 0.004,-0.015 0.012,-0.026 0.019,-0.033 0.113,-0.18 0.216,-0.366 0.307,-0.549 0.026,-0.052 0.048,-0.103 0.07,-0.158 0.216,-0.512 0.336,-1.083 0.336,-1.676 0,-1.932 -1.266,-3.568 -3.008,-4.113 -0.066,-0.022 -0.135,-0.04 -0.205,-0.059 -0.055,-0.014 -0.11,-0.029 -0.168,-0.04 -0.062,-0.015 -0.125,-0.026 -0.19,-0.033 -0.081,-0.015 -0.165,-0.026 -0.249,-0.037 -0.081,-0.007 -0.161,-0.014 -0.242,-0.018 -0.073,-0.004 -0.146,-0.007 -0.219,-0.007 h -0.037 c -1.083,0 -2.086,0.333 -3.005,1.076 l -1.749,1.423 c -3.996,3.246 -7.169,6.998 -7.169,14.163"
       style="fill:#011031;fill-opacity:1;fill-rule:nonzero;stroke:none"
       id="path478-6" />
  </g>
</svg>
