<?xml version="1.0" encoding="UTF-8"?><svg id="Capa_2" xmlns="http://www.w3.org/2000/svg" viewBox="0 0 434.99 213.8"><defs><style>.cls-1,.cls-2{fill:#fff;}.cls-2{font-family:Ubuntu-Light, Ubuntu;font-size:76px;font-weight:300;}</style></defs><g id="business"><g><g id="shaper"><path class="cls-1" d="M10.41,95.1h25.62c9.57,0,12.66-4.86,12.66-11.48,0-4.56-1.32-7.95-5.59-11.48l-3.09-2.5c-2.8-2.36-4.42-5.15-4.42-7.95,0-1.47,.44-2.8,1.47-4.12,1.62-2.06,3.97-3.09,6.33-3.09,1.91,0,3.68,.59,5.3,1.91l3.09,2.5c7.07,5.74,12.66,12.37,12.66,25.03,0,17.52-10.45,26.5-28.56,26.5H10.41c-4.12,0-6.92-3.09-6.92-7.66s2.8-7.66,6.92-7.66ZM55.31,15.31h-22.67c-9.57,0-12.66,4.86-12.66,11.48,0,4.56,1.33,7.95,5.59,11.48l3.09,2.5c2.8,2.36,4.42,5.15,4.42,7.95,0,1.47-.44,2.8-1.47,4.12-1.62,2.06-3.97,3.09-6.33,3.09-1.91,0-3.68-.59-5.3-1.91l-3.09-2.5c-7.07-5.74-12.66-12.37-12.66-25.03C4.22,8.98,14.68,0,32.78,0h22.52c4.12,0,6.92,3.09,6.92,7.66s-2.8,7.65-6.92,7.65Z"/><g><path class="cls-1" d="M110.22,30.94h-15.03V7.37c0-4.56-3.24-7.37-7.66-7.37s-7.66,2.8-7.66,7.37v31.24c0,4.56,3.1,7.66,7.66,7.66h20.48c14.88,0,16.21,4.12,16.21,16.05v40.81c0,4.27,3.39,7.37,7.65,7.37s7.66-3.1,7.66-7.37V60.11c0-21.8-8.54-29.17-29.31-29.17Z"/><path class="cls-1" d="M95.19,61v42.13c0,4.27-3.39,7.37-7.66,7.37s-7.66-3.1-7.66-7.37V61c0-4.28,3.4-7.37,7.66-7.37s7.66,3.09,7.66,7.37Z"/></g><path class="cls-1" d="M181.27,96.46h4.71c4.27,0,7.36,2.94,7.36,7.21,0,3.97-3.09,6.92-7.36,6.92h-5.89c-14.87,0-25.17-9.13-25.17-23.7s8.98-23.7,25.03-23.7h6.04c4.27,0,7.36,2.94,7.36,7.21s-3.09,6.92-7.36,6.92h-4.71c-6.92,0-10.75,2.5-10.75,9.57s5.01,9.57,10.75,9.57Zm-13.4-65.36h19.14c18.55,0,29,7.8,29,27.68v44.75c0,4.27-2.5,7.07-7.66,7.07s-7.65-2.8-7.65-7.07V60.98c0-11.04-5.59-14.87-15.9-14.87h-16.93c-4.27,0-7.36-3.24-7.36-7.51s3.09-7.51,7.36-7.51Z"/><g><rect class="cls-1" x="238.12" y="31.11" width="16.17" height="106.49" rx="8.09" ry="8.09"/><path class="cls-1" d="M267.89,31.14l-1.15-.1c-4.23-.37-7.54,2.57-7.92,6.92-.38,4.37,2.39,7.83,6.61,8.2l1.17,.1c10.5,.92,13.36,7.33,13.22,14.04l-.11,.02s.01,.09,.01,.14c.02,.24,.04,.48,.05,.72-.01,.24-.02,.48-.04,.72,0,.05-.01,.09-.01,.14h.11c.25,6.73-2.51,13.18-12.99,14.26l-1.16,.12c-4.21,.43-6.92,3.94-6.48,8.3,.45,4.35,3.81,7.23,8.03,6.8l1.15-.11c18.47-1.9,26.51-15.09,25.72-30.33,.55-15.25-7.7-28.31-26.2-29.92Z"/></g><g><path class="cls-1" d="M361.32,95.65h-20.25c-7.23,0-14.31-2.6-14.31-12.29v-1.15c0-4.2-3.18-7.23-7.52-7.23s-7.52,3.03-7.52,7.23v1.15c0,18.22,13.31,27.05,29.36,27.05h20.25c4.2,0,7.23-3.18,7.23-7.38s-3.03-7.37-7.23-7.37Z"/><path class="cls-1" d="M370.43,59.35v10.99c0,4.63-1.73,6.51-6.22,6.51h-24.16c-4.19,0-7.23-2.31-7.23-6.94s3.04-6.94,7.23-6.94h15.34v-3.62c0-11.28-7.23-14.32-14.32-14.32s-14.31,3.04-14.31,14.32v1.15c0,4.2-3.18,7.23-7.52,7.23s-7.52-3.03-7.52-7.23v-1.15c0-19.24,13.31-28.5,29.36-28.5s29.36,9.26,29.36,28.5Z"/></g><g><rect class="cls-1" x="391.45" y="73.9" width="15.33" height="36.4" rx="7.66" ry="7.66"/><path class="cls-1" d="M427.27,30.43h-10.69c-16.31,0-25.07,7.72-25.07,24.93v4.01c0,4.31,3.41,7.42,7.72,7.42s7.71-3.11,7.71-7.42v-1.78c0-7.26,2.53-11.72,11.87-11.72h8.46c4.61,0,7.72-3.12,7.72-7.72s-3.11-7.72-7.72-7.72Z"/></g></g><text class="cls-2" transform="translate(0 198.91)"><tspan x="0" y="0">for Business</tspan></text></g></g></svg>