<?xml version="1.0" encoding="UTF-8"?><svg id="Capa_2" xmlns="http://www.w3.org/2000/svg" viewBox="0 0 614.85 194.68"><defs><style>.cls-1{fill:#020f33;}</style></defs><g id="LOGOS"><g id="shaper"><path class="cls-1" d="M9.7,134.66H45.6c13.41,0,17.75-6.81,17.75-16.1,0-6.4-1.86-11.14-7.84-16.1l-4.33-3.51c-3.92-3.3-6.19-7.22-6.19-11.14,0-2.06,.62-3.92,2.06-5.78,2.27-2.89,5.57-4.33,8.87-4.33,2.68,0,5.16,.83,7.43,2.68l4.33,3.51c9.9,8.05,17.75,17.33,17.75,35.08,0,24.56-14.65,37.14-40.03,37.14H9.7c-5.78,0-9.7-4.33-9.7-10.73s3.92-10.73,9.7-10.73ZM72.64,22.82h-31.78c-13.41,0-17.75,6.81-17.75,16.1,0,6.4,1.86,11.14,7.84,16.1l4.33,3.51c3.92,3.3,6.19,7.22,6.19,11.14,0,2.06-.62,3.92-2.06,5.78-2.27,2.89-5.57,4.33-8.87,4.33-2.68,0-5.16-.83-7.43-2.68l-4.33-3.51C8.87,65.53,1.03,56.25,1.03,38.5,1.03,13.95,15.68,1.36,41.06,1.36h31.57c5.78,0,9.7,4.33,9.7,10.73s-3.92,10.73-9.7,10.73Z"/><g><path class="cls-1" d="M155.45,43.77h-21.26V10.42c0-6.45-4.59-10.42-10.84-10.42s-10.84,3.97-10.84,10.42V54.61c0,6.45,4.39,10.84,10.84,10.84h28.98c21.05,0,22.93,5.83,22.93,22.71v57.74c0,6.03,4.79,10.42,10.83,10.42s10.84-4.39,10.84-10.42v-60.87c0-30.85-12.09-41.27-41.47-41.27Z"/><path class="cls-1" d="M134.18,86.3v59.61c0,6.03-4.79,10.42-10.84,10.42s-10.84-4.39-10.84-10.42v-59.61c0-6.05,4.81-10.42,10.84-10.42s10.84,4.37,10.84,10.42Z"/></g><path class="cls-1" d="M255.97,136.47h6.66c6.04,0,10.41,4.17,10.41,10.21,0,5.62-4.37,9.79-10.41,9.79h-8.33c-21.04,0-35.61-12.91-35.61-33.53s12.7-33.53,35.41-33.53h8.54c6.04,0,10.41,4.17,10.41,10.21s-4.37,9.79-10.41,9.79h-6.66c-9.79,0-15.2,3.54-15.2,13.54s7.08,13.54,15.2,13.54Zm-18.95-92.47h27.08c26.24,0,41.03,11.04,41.03,39.16v63.32c0,6.04-3.54,10-10.83,10s-10.83-3.96-10.83-10v-60.19c0-15.62-7.91-21.04-22.49-21.04h-23.95c-6.04,0-10.41-4.58-10.41-10.62s4.37-10.62,10.41-10.62Z"/><g><rect class="cls-1" x="336.39" y="44.01" width="22.88" height="150.67" rx="11.44" ry="11.44"/><path class="cls-1" d="M378.52,44.06l-1.63-.14c-5.98-.52-10.67,3.63-11.21,9.79-.53,6.18,3.38,11.08,9.35,11.59l1.65,.14c14.85,1.3,18.9,10.37,18.7,19.87l-.15,.02c0,.07,.02,.13,.02,.2,.04,.34,.05,.68,.08,1.02-.02,.34-.03,.68-.06,1.02,0,.07-.02,.13-.02,.2l.15,.02c.35,9.5-3.56,18.62-18.38,20.16l-1.65,.16c-5.95,.61-9.79,5.57-9.16,11.74,.63,6.15,5.39,10.23,11.36,9.61l1.63-.16c26.13-2.69,37.51-21.35,36.39-42.91,.78-21.58-10.89-40.05-37.06-42.33Z"/></g><g><path class="cls-1" d="M510.7,135.41h-28.65c-10.23,0-20.25-3.68-20.25-17.39v-1.63c0-5.94-4.51-10.23-10.64-10.23s-10.64,4.29-10.64,10.23v1.63c0,25.78,18.83,38.27,41.54,38.27h28.65c5.94,0,10.23-4.51,10.23-10.45s-4.29-10.43-10.23-10.43Z"/><path class="cls-1" d="M523.59,84.06v15.55c0,6.55-2.44,9.21-8.8,9.21h-34.18c-5.92,0-10.23-3.27-10.23-9.82s4.31-9.82,10.23-9.82h21.7v-5.12c0-15.96-10.23-20.27-20.27-20.27s-20.25,4.31-20.25,20.27v1.63c0,5.94-4.51,10.23-10.64,10.23s-10.64-4.29-10.64-10.23v-1.63c0-27.21,18.83-40.32,41.54-40.32s41.54,13.1,41.54,40.32Z"/></g><g><rect class="cls-1" x="553.4" y="104.83" width="21.63" height="51.38" rx="10.82" ry="10.82"/><path class="cls-1" d="M603.96,43.48h-15.08c-23.02,0-35.39,10.89-35.39,35.18v5.66c0,6.08,4.81,10.47,10.89,10.47s10.88-4.39,10.88-10.47v-2.52c0-10.25,3.56-16.54,16.76-16.54h11.94c6.5,0,10.89-4.41,10.89-10.89s-4.39-10.89-10.89-10.89Z"/></g></g></g></svg>