<?xml version="1.0" encoding="UTF-8"?><svg id="Capa_2" xmlns="http://www.w3.org/2000/svg" viewBox="0 0 374.25 119.35"><defs><style>.cls-1{fill:#fff;}</style></defs><g id="white"><g id="shaper"><path class="cls-1" d="M6,82.48H28.22c8.3,0,10.98-4.21,10.98-9.96,0-3.96-1.15-6.89-4.85-9.96l-2.68-2.17c-2.43-2.04-3.83-4.47-3.83-6.89,0-1.28,.38-2.43,1.28-3.58,1.4-1.79,3.45-2.68,5.49-2.68,1.66,0,3.19,.51,4.6,1.66l2.68,2.17c6.13,4.98,10.98,10.73,10.98,21.71,0,15.19-9.07,22.98-24.77,22.98H6c-3.57,0-6-2.68-6-6.64s2.43-6.64,6-6.64ZM44.94,13.28H25.28c-8.3,0-10.98,4.21-10.98,9.96,0,3.96,1.15,6.89,4.85,9.96l2.68,2.17c2.43,2.04,3.83,4.47,3.83,6.89,0,1.28-.38,2.43-1.28,3.57-1.4,1.79-3.45,2.68-5.49,2.68-1.66,0-3.19-.51-4.6-1.66l-2.68-2.17C5.49,39.71,.64,33.96,.64,22.98,.64,7.79,9.7,0,25.41,0h19.53c3.57,0,6,2.68,6,6.64s-2.43,6.64-6,6.64Z"/><g><path class="cls-1" d="M92.57,26.83h-13.04V6.39c0-3.96-2.81-6.39-6.65-6.39s-6.65,2.43-6.65,6.39v27.09c0,3.96,2.69,6.65,6.65,6.65h17.77c12.9,0,14.06,3.58,14.06,13.92v35.4c0,3.7,2.94,6.39,6.64,6.39s6.65-2.69,6.65-6.39V52.13c0-18.91-7.41-25.3-25.42-25.3Z"/><path class="cls-1" d="M79.53,52.91v36.54c0,3.7-2.94,6.39-6.65,6.39s-6.65-2.69-6.65-6.39V52.91c0-3.71,2.95-6.39,6.65-6.39s6.65,2.68,6.65,6.39Z"/></g><path class="cls-1" d="M154.19,83.66h4.09c3.7,0,6.38,2.55,6.38,6.26,0,3.45-2.68,6-6.38,6h-5.11c-12.9,0-21.83-7.92-21.83-20.56s7.79-20.56,21.71-20.56h5.24c3.7,0,6.38,2.55,6.38,6.26s-2.68,6-6.38,6h-4.09c-6,0-9.32,2.17-9.32,8.3s4.34,8.3,9.32,8.3Zm-11.62-56.69h16.6c16.09,0,25.15,6.77,25.15,24v38.82c0,3.7-2.17,6.13-6.64,6.13s-6.64-2.43-6.64-6.13V52.89c0-9.58-4.85-12.9-13.79-12.9h-14.68c-3.7,0-6.38-2.81-6.38-6.51s2.68-6.51,6.38-6.51Z"/><g><rect class="cls-1" x="203.5" y="26.98" width="14.03" height="92.36" rx="7.01" ry="7.01"/><path class="cls-1" d="M229.32,27.01l-1-.08c-3.67-.32-6.54,2.23-6.87,6-.33,3.79,2.07,6.79,5.73,7.11l1.01,.08c9.1,.8,11.59,6.36,11.46,12.18h-.09c0,.05,.01,.09,.01,.14,.02,.21,.03,.42,.05,.62-.01,.21-.02,.42-.04,.62,0,.04,0,.08,0,.12h.09c.22,5.83-2.18,11.43-11.27,12.37l-1.01,.1c-3.65,.38-6,3.41-5.62,7.2,.39,3.77,3.3,6.27,6.96,5.89l1-.1c16.02-1.65,23-13.09,22.31-26.31,.48-13.23-6.68-24.55-22.72-25.95Z"/></g><g><path class="cls-1" d="M310.36,82.96h-17.56c-6.27,0-12.41-2.26-12.41-10.66v-1c0-3.64-2.76-6.27-6.53-6.27s-6.53,2.63-6.53,6.27v1c0,15.8,11.54,23.46,25.47,23.46h17.56c3.64,0,6.27-2.76,6.27-6.4s-2.63-6.39-6.27-6.39Z"/><path class="cls-1" d="M318.26,51.48v9.53c0,4.02-1.5,5.65-5.39,5.65h-20.95c-3.63,0-6.27-2-6.27-6.02s2.64-6.02,6.27-6.02h13.3v-3.14c0-9.78-6.27-12.42-12.42-12.42s-12.41,2.64-12.41,12.42v1c0,3.64-2.76,6.27-6.53,6.27s-6.53-2.63-6.53-6.27v-1c0-16.68,11.54-24.72,25.47-24.72s25.47,8.03,25.47,24.72Z"/></g><g><rect class="cls-1" x="336.49" y="64.09" width="13.29" height="31.57" rx="6.65" ry="6.65"/><path class="cls-1" d="M367.55,26.39h-9.27c-14.15,0-21.74,6.69-21.74,21.62v3.48c0,3.74,2.96,6.43,6.69,6.43s6.68-2.7,6.68-6.43v-1.55c0-6.3,2.19-10.16,10.3-10.16h7.34c4,0,6.69-2.71,6.69-6.69s-2.7-6.69-6.69-6.69Z"/></g></g></g></svg>