<?xml version="1.0" encoding="UTF-8"?><svg id="Capa_2" xmlns="http://www.w3.org/2000/svg" viewBox="0 0 4386.82 1440.25"><defs><style>.cls-1{fill:#fbbc04;}.cls-2{fill:#ea4335;}.cls-3{fill:#4285f4;}.cls-4{fill:#34a853;}</style></defs><g id="_ÎÓÈ_1"><g><path class="cls-3" d="M1117.89,512.08H559.98v154.56h391.2c-46.83,172.15-204.22,298.75-391.2,298.75-223.9,0-405.41-181.51-405.41-405.41S336.07,154.56,559.98,154.56c105.84,0,202.19,40.58,274.39,107.01l109.36-109.36C843.5,57.84,708.5,0,559.98,0,250.71,0,0,250.71,0,559.98s250.71,559.98,559.98,559.98,559.98-250.71,559.98-559.98c0-16.14-.72-32.11-2.06-47.9Z"/><path class="cls-2" d="M1536.68,396.29c-197.77,0-358.1,161.38-358.1,360.44s160.33,360.44,358.1,360.44,358.1-161.38,358.1-360.44-160.33-360.44-358.1-360.44Zm0,577.74c-108.24,0-195.99-94.73-195.99-211.59s87.75-211.59,195.99-211.59,195.99,94.73,195.99,211.59-87.75,211.59-195.99,211.59Z"/><path class="cls-1" d="M2311.51,396.29c-197.77,0-358.1,161.38-358.1,360.44s160.33,360.44,358.1,360.44,358.1-161.38,358.1-360.44-160.33-360.44-358.1-360.44Zm0,577.74c-108.24,0-195.99-94.73-195.99-211.59s87.75-211.59,195.99-211.59,195.99,94.73,195.99,211.59-87.75,211.59-195.99,211.59Z"/><rect class="cls-4" x="3449.92" width="154.56" height="1131.45"/><path class="cls-2" d="M4218.04,849.24c-23.24,47.65-63.24,84.55-112.62,103.89-52.46,20.55-109.77,19.43-161.4-3.14-32.86-14.37-60.91-36.33-82.26-63.93l525.05-205.63-8.12-27.33c-3-10.11-6.41-20.05-10.13-29.54-35.57-90.83-104.39-162.38-193.77-201.45-89.38-39.08-188.63-41-279.46-5.43-90.83,35.57-162.38,104.39-201.45,193.77-39.08,89.38-41,188.63-5.43,279.46,35.57,90.83,104.39,162.38,193.77,201.45,46.89,20.5,96.5,30.78,146.19,30.78,45.02,0,90.09-8.44,133.27-25.35,86.97-34.06,156.88-99.3,196.85-183.7l13.68-28.9-141.13-61.7-13.04,26.75Zm-48.51-249.41l-351.14,137.52c2.07-22.17,7.7-44.1,16.87-65.09,22.57-51.62,63.88-91.36,116.34-111.91,24.98-9.78,50.96-14.48,76.69-14.48,51.68,0,102.27,18.99,141.23,53.96Z"/><path class="cls-3" d="M3236.73,396.29v63.51c-52.29-40.05-115.66-63.51-183.98-63.51-179.23,0-324.52,161.38-324.52,360.44s145.29,360.44,324.52,360.44c68.32,0,131.69-23.47,183.98-63.51v77.79c0,44.49-32.07,168.17-177.89,168.17s-186.88-130.36-186.88-130.36l-140.11,65.27s52.69,205.72,340.87,205.72c156.1,0,236.56-90.6,277.53-173.65,27.76-56.28,41.05-118.6,41.05-181.35V396.29h-154.57Zm-183.98,577.74c-98.09,0-177.61-94.73-177.61-211.59s79.52-211.59,177.61-211.59,177.61,94.73,177.61,211.59-79.52,211.59-177.61,211.59Z"/></g></g></svg>