<?xml version="1.0" encoding="UTF-8"?><svg id="Capa_2" xmlns="http://www.w3.org/2000/svg" viewBox="0 0 1569.96 335.26"><defs><style>.cls-1{fill:#777;}.cls-1,.cls-2,.cls-3,.cls-4,.cls-5{fill-rule:evenodd;}.cls-2{fill:#88c700;}.cls-3{fill:#ff4512;}.cls-4{fill:#ffb508;}.cls-5{fill:#03afff;}</style></defs><g id="Layer_1"><g><path class="cls-3" d="M0,0H159.49c0,53.16,0,106.32,0,159.49H0V0Z"/><path class="cls-2" d="M175.77,0h159.49c0,53.16,0,106.32-.01,159.49-53.15,0-106.31,0-159.47,0-.02-53.16,0-106.32,0-159.49Z"/><path class="cls-1" d="M1438.2,60.77c14.7-9.57,33.7-10.46,50.27-5.9,.14,9.85,.02,19.7,.07,29.56-7.87-3.47-17.14-5.73-25.42-2.33-6.57,2.6-10.48,9.35-11.5,16.09-1.23,8.55-.43,17.22-.64,25.82,16.82,.04,33.64,.01,50.46,.02,.13-10.92-.13-21.85,.14-32.77,11.44-3.26,22.75-6.91,34.13-10.34,.1,14.39-.14,28.78,.12,43.18,11.37-.16,22.75-.04,34.13-.08v28.01c-11.42-.47-22.84-.13-34.26-.16,.05,16.1,.01,32.2,.02,48.31,.18,8.92-.48,17.88,.56,26.77,.63,5.24,2.54,11.04,7.45,13.75,8.23,4.61,18.67,2.6,26.23-2.46v28.29c-9.86,4.28-20.87,5.58-31.53,4.83-10.12-.75-20.59-4.43-27.19-12.47-7.62-9.09-9.59-21.4-9.74-32.91-.09-24.71,0-49.43-.04-74.15-16.83,0-33.66-.02-50.48,0-.02,38.78,0,77.57,0,116.35h-34.49c0-38.77-.05-77.54,.02-116.31-8-.15-16.01,.04-24-.13,.03-9.21,.07-18.42-.02-27.63,7.96-.18,15.93-.11,23.91-.05,.58-12.24-1.28-24.84,2.38-36.76,3.09-10.77,9.97-20.48,19.46-26.55Z"/><path class="cls-1" d="M699.7,67.32c6.95-1.05,14.48,1.32,19.09,6.76,5.4,5.96,6.4,15.44,2.4,22.4-4.43,7.85-14.33,11.5-22.96,9.62-8.95-1.61-16.42-9.93-16.02-19.21-.26-9.77,7.91-18.48,17.49-19.57Z"/><polygon class="cls-1" points="544.41 215.73 604.8 67.17 653.07 67.07 653.06 268.2 618.25 268.13 618.1 113.03 556.22 268.08 544.41 268.22 532.6 268.08 470.72 113.03 470.57 268.13 435.76 268.2 435.75 67.07 484.01 67.17 544.41 215.73"/><path class="cls-1" d="M825.61,120.64c11.1,.5,22.05,2.79,30.09,7.51-.19,10.99,0,21.99-.11,32.98-5.56-4.25-11.87-7.72-18.55-9.9-12.04-3.94-25.63-3.45-36.83,2.74-11.49,6.34-18.42,17.29-21,30-3.39,16.73-.51,37.91,13.16,49.57,8.7,7.73,20.89,10.47,32.27,9.61,11.25-1.29,21.86-6.06,30.95-12.7,.1,10.41-.05,20.82,.08,31.24-7.05,4.2-14.8,6.83-22.81,8.33-15.74,2.93-33.6,2.17-48.52-3.91-16.58-6.75-28.79-19.03-35.75-35.51-7.06-16.71-7.57-36.53-3.39-54.05,4.15-17.35,13.17-32.17,27.91-42.44,15.5-10.79,33.84-14.29,52.48-13.46Z"/><path class="cls-1" d="M1028.32,121.42c16.55-2.11,34.01-1.17,49.38,5.82,13.33,6.02,24.14,17.14,30.13,30.45,6.39,14.18,7.94,30.1,6.86,45.47-1.06,15.01-5.78,30.05-15.16,41.97-9.61,12.66-24.09,21.25-39.6,24.44-13.26,2.76-27.13,2.75-40.38-.04-15.86-3.39-30.55-12.6-39.85-25.99-10.92-15.52-14.02-35.25-12.63-53.84,.94-15.78,5.84-31.68,15.92-44.05,11.04-13.86,27.96-22.04,45.35-24.23h0Zm10.29,27.38c-8.25,.46-16.58,3.25-22.69,8.96-8.43,7.63-12.28,19.01-13.32,30.08-1.15,12.17-.32,24.99,5.24,36.08,4.32,8.61,12.26,15.37,21.62,17.84,9.2,2.38,19.21,2.18,28.11-1.24,7.62-2.97,13.65-9.23,16.95-16.65,4.98-11,5.47-23.36,4.86-35.23-.85-10.84-3.94-22.21-11.91-30.05-7.45-7.54-18.49-10.47-28.85-9.79Z"/><path class="cls-1" d="M1195.6,121c8.05,.88,16,2.82,23.55,5.68v31.71c-5.26-3.63-11.12-6.41-17.26-8.24-6.14-1.82-12.56-2.69-18.96-2.46-10.6,.41-20,7.22-17,18.84,2.27,8.79,13.58,12.6,21.18,15.76,5.41,2.24,10.86,4.41,15.92,7.34,7.98,4.48,15.72,10.35,19.76,18.79,3.8,7.91,4.89,17.1,3.37,25.78-1.53,8.68-5.67,16.86-12.34,22.76-6.37,5.96-14.15,9.76-22.45,12-18.89,5.09-42.65,2.53-60.62-5.46l.06-33.34c4.64,3.37,9.63,6.26,14.88,8.55,11.63,5.07,28.21,8.54,40.22,2.78,3.52-1.75,5.59-5.12,6.26-8.82,1.45-7.95-2.75-12.71-9.11-16.52-2.6-1.56-5.39-2.84-8.09-4.12-5.08-2.28-10.29-4.38-15.35-6.76-8.78-4.14-17.03-8.93-22.52-17.18-5.44-8.17-7.08-18.99-5.94-28.61,1.61-13.5,9.3-23.84,20.88-30.68,12.95-7.65,28.81-9.38,43.55-7.78Z"/><path class="cls-1" d="M932.83,126.25c9.52-5.72,21.62-6.2,32.01-2.7-.05,11.5,0,26.06-.03,37.56-6.8-4.41-15.29-6.29-23.31-5.48-9.79,1.11-17.55,8.63-21.57,17.25-4.37,9.13-5.19,19.45-4.91,29.44v65.89h-34l-.03-144.09c11.35-.14,22.7-.09,34.05-.03-.05,8.25,0,16.49-.03,24.75,3.69-8.98,9.18-17.69,17.83-22.59Z"/><polygon class="cls-1" points="685.34 124.08 719.66 124.14 719.6 268.21 685.36 268.21 685.34 124.08"/><path class="cls-5" d="M0,175.76c53.16,.02,106.32,0,159.49,.02,.01,53.16,0,106.31,0,159.48H0V175.76Z"/><path class="cls-4" d="M175.78,175.78c53.15-.02,106.31,0,159.48,0v159.49H175.77c0-53.16,0-106.32,0-159.48Z"/><path class="cls-1" d="M1298.64,121.42c16.55-2.11,34.01-1.17,49.38,5.82,13.33,6.02,24.14,17.14,30.12,30.45,6.39,14.18,7.94,30.1,6.86,45.47-1.06,15.01-5.78,30.05-15.16,41.97-9.61,12.66-24.09,21.25-39.6,24.44-13.26,2.76-27.13,2.75-40.38-.04-15.86-3.39-30.55-12.6-39.85-25.99-10.92-15.52-14.02-35.25-12.64-53.84,.94-15.78,5.84-31.68,15.92-44.05,11.03-13.86,27.96-22.04,45.35-24.23h0Zm10.29,27.38c-8.25,.46-16.58,3.25-22.69,8.96-8.43,7.63-12.28,19.01-13.32,30.08-1.15,12.17-.32,24.99,5.24,36.08,4.32,8.61,12.26,15.37,21.62,17.84,9.2,2.38,19.21,2.18,28.11-1.24,7.62-2.97,13.65-9.23,16.95-16.65,4.98-11,5.47-23.36,4.86-35.23-.85-10.84-3.94-22.21-11.91-30.05-7.45-7.54-18.49-10.47-28.85-9.79Z"/></g></g></svg>