<?xml version="1.0" encoding="UTF-8" standalone="no"?>
<svg
   width="278.672"
   height="36.336975"
   version="1.1"
   viewBox="0 0 278.67201 36.336975"
   xml:space="preserve"
   id="svg28"
   sodipodi:docname="Tesla_Motors.svg"
   xmlns:inkscape="http://www.inkscape.org/namespaces/inkscape"
   xmlns:sodipodi="http://sodipodi.sourceforge.net/DTD/sodipodi-0.dtd"
   xmlns="http://www.w3.org/2000/svg"
   xmlns:svg="http://www.w3.org/2000/svg"
   xmlns:rdf="http://www.w3.org/1999/02/22-rdf-syntax-ns#"
   xmlns:cc="http://creativecommons.org/ns#"
   xmlns:dc="http://purl.org/dc/elements/1.1/"><defs
   id="defs32" /><sodipodi:namedview
   id="namedview30"
   pagecolor="#ffffff"
   bordercolor="#000000"
   borderopacity="0.25"
   inkscape:showpageshadow="2"
   inkscape:pageopacity="0.0"
   inkscape:pagecheckerboard="0"
   inkscape:deskcolor="#d1d1d1"
   showgrid="false" />
  
  <g
   fill="#e82127"
   id="g18"
   transform="translate(0,-324.10101)"><path
   transform="translate(-28.524,-64.797)"
   d="m 28.524,388.986 c 0.812,3.167 3.554,6.404 7.316,7.215 h 11.37 l 0.58,0.229 v 28.691 h 7.1 V 396.43 l 0.645,-0.229 h 11.38 c 3.804,-0.98 6.487,-4.048 7.285,-7.215 v -0.07 H 28.524 v 0.07"
   id="path2" /><path
   transform="translate(-28.524,-64.797)"
   d="m 98.795,425.202 h 27.011 c 3.758,-0.747 6.551,-4.058 7.334,-7.263 H 91.461 c 0.778,3.206 3.612,6.516 7.334,7.263"
   id="path4" /><path
   transform="translate(-28.524,-64.797)"
   d="m 98.795,410.485 h 27.011 c 3.758,-0.741 6.551,-4.053 7.334,-7.262 H 91.461 c 0.778,3.21 3.612,6.521 7.334,7.262"
   id="path6" /><path
   transform="translate(-28.524,-64.797)"
   d="m 98.795,396.163 h 27.011 c 3.758,-0.749 6.551,-4.058 7.334,-7.265 H 91.461 c 0.778,3.207 3.612,6.516 7.334,7.265"
   id="path8" /><path
   transform="translate(-28.524,-64.797)"
   d="m 160.398,396.094 h 24.954 c 3.762,-1.093 6.921,-3.959 7.691,-7.136 h -39.64 v 21.415 h 32.444 v 7.515 l -25.449,0.02 c -3.988,1.112 -7.37,3.79 -9.057,7.327 l 2.062,-0.038 h 39.415 v -21.944 h -32.42 v -7.159"
   id="path10" /><path
   transform="translate(-28.524,-64.797)"
   d="m 245.319,425.206 c 3.543,-1.502 5.449,-4.1 6.179,-7.14 h -31.517 l 0.02,-29.118 -7.065,0.02 v 36.238 h 32.383"
   id="path12" /><path
   transform="translate(-28.524,-64.797)"
   d="m 272.845,396.192 h 27.02 c 3.753,-0.746 6.544,-4.058 7.331,-7.262 h -41.681 c 0.779,3.205 3.611,6.516 7.33,7.262"
   id="path14" /><path
   transform="translate(-28.524,-64.797)"
   d="m 266.601,403.28 v 21.912 h 7.027 v -14.589 h 25.575 v 14.589 h 7.022 v -21.874 l -39.624,-0.038"
   id="path16" />
    
  </g>
  
<metadata
   id="metadata26"><rdf:RDF><cc:Work
       rdf:about=""><dc:subject><rdf:Bag><rdf:li>Tesla</rdf:li></rdf:Bag></dc:subject></cc:Work></rdf:RDF></metadata></svg>
